<?xml version="1.0" encoding="utf-8" standalone="no"?>
<!DOCTYPE svg PUBLIC "-//W3C//DTD SVG 1.1//EN"
  "http://www.w3.org/Graphics/SVG/1.1/DTD/svg11.dtd">
<svg xmlns:xlink="http://www.w3.org/1999/xlink" width="162.519685pt" height="113.385827pt" viewBox="0 0 162.519685 113.385827" xmlns="http://www.w3.org/2000/svg" version="1.1">
 <metadata>
  <rdf:RDF xmlns:dc="http://purl.org/dc/elements/1.1/" xmlns:cc="http://creativecommons.org/ns#" xmlns:rdf="http://www.w3.org/1999/02/22-rdf-syntax-ns#">
   <cc:Work>
    <dc:type rdf:resource="http://purl.org/dc/dcmitype/StillImage"/>
    <dc:date>2025-06-16T00:14:07.080274</dc:date>
    <dc:format>image/svg+xml</dc:format>
    <dc:creator>
     <cc:Agent>
      <dc:title>Matplotlib v3.9.1, https://matplotlib.org/</dc:title>
     </cc:Agent>
    </dc:creator>
   </cc:Work>
  </rdf:RDF>
 </metadata>
 <defs>
  <style type="text/css">*{stroke-linejoin: round; stroke-linecap: butt}</style>
 </defs>
 <g id="figure_1">
  <g id="patch_1">
   <path d="M 0 113.385827 
L 162.519685 113.385827 
L 162.519685 0 
L 0 0 
z
" style="fill: #ffffff"/>
  </g>
  <g id="axes_1">
   <g id="patch_2">
    <path d="M 32.503937 74.267717 
L 136.516535 74.267717 
L 136.516535 19.84252 
L 32.503937 19.84252 
z
" style="fill: #ffffff"/>
   </g>
   <g id="PolyCollection_1">
    <path d="M 37.231782 47.074411 
L 37.231782 47.03423 
L 40.492365 47.00272 
L 43.752948 46.968057 
L 47.013531 46.934087 
L 50.274114 47.000091 
L 53.534698 46.867248 
L 56.795281 46.892098 
L 60.055864 46.92041 
L 63.316447 46.857629 
L 66.57703 46.724076 
L 69.837613 46.701705 
L 73.098196 46.647448 
L 76.358779 46.645298 
L 79.619362 46.470887 
L 82.879945 46.497871 
L 86.140528 46.366264 
L 89.401111 46.38349 
L 92.661694 46.022198 
L 95.922277 46.075981 
L 99.18286 45.741882 
L 102.443443 45.394571 
L 105.704026 44.974168 
L 108.964609 44.55657 
L 112.225192 43.713941 
L 115.485775 42.638328 
L 118.746358 41.402938 
L 122.006941 39.220281 
L 125.267524 35.70936 
L 128.528107 23.992301 
L 131.78869 140.462052 
L 131.78869 244.199024 
L 131.78869 244.199024 
L 128.528107 80.66648 
L 125.267524 57.408284 
L 122.006941 54.249093 
L 118.746358 52.394012 
L 115.485775 51.224 
L 112.225192 50.305374 
L 108.964609 49.406853 
L 105.704026 49.085509 
L 102.443443 48.652993 
L 99.18286 48.348197 
L 95.922277 47.939213 
L 92.661694 48.080118 
L 89.401111 47.719486 
L 86.140528 47.74704 
L 82.879945 47.566803 
L 79.619362 47.610361 
L 76.358779 47.485895 
L 73.098196 47.484251 
L 69.837613 47.376439 
L 66.57703 47.416067 
L 63.316447 47.242904 
L 60.055864 47.196435 
L 56.795281 47.206609 
L 53.534698 47.200202 
L 50.274114 47.108611 
L 47.013531 47.175029 
L 43.752948 47.125012 
L 40.492365 47.081198 
L 37.231782 47.074411 
z
" clip-path="url(#p30ecf2d9a8)" style="fill: #bf00bf; fill-opacity: 0.15; stroke: #bf00bf; stroke-opacity: 0.15"/>
   </g>
   <g id="PolyCollection_2">
    <path d="M 37.231782 47.055118 
L 37.231782 47.055118 
L 40.492365 47.055011 
L 43.752948 47.054949 
L 47.013531 47.054957 
L 50.274114 47.054954 
L 53.534698 47.05481 
L 56.795281 47.054778 
L 60.055864 47.054619 
L 63.316447 47.054557 
L 66.57703 47.054163 
L 69.837613 47.054449 
L 73.098196 47.05356 
L 76.358779 47.053306 
L 79.619362 47.052874 
L 82.879945 47.053344 
L 86.140528 47.051151 
L 89.401111 47.048354 
L 92.661694 47.047018 
L 95.922277 47.048274 
L 99.18286 47.043939 
L 102.443443 47.034946 
L 105.704026 47.038929 
L 108.964609 47.025282 
L 112.225192 47.011551 
L 115.485775 46.996375 
L 118.746358 46.995056 
L 122.006941 46.959935 
L 125.267524 46.91558 
L 128.528107 46.865291 
L 131.78869 145.149664 
L 131.78869 234.989191 
L 131.78869 234.989191 
L 128.528107 47.241943 
L 125.267524 47.193315 
L 122.006941 47.148333 
L 118.746358 47.114438 
L 115.485775 47.113762 
L 112.225192 47.098139 
L 108.964609 47.084608 
L 105.704026 47.070958 
L 102.443443 47.075266 
L 99.18286 47.066226 
L 95.922277 47.062029 
L 92.661694 47.062634 
L 89.401111 47.061573 
L 86.140528 47.059098 
L 82.879945 47.05664 
L 79.619362 47.057084 
L 76.358779 47.056977 
L 73.098196 47.056828 
L 69.837613 47.055869 
L 66.57703 47.056072 
L 63.316447 47.055521 
L 60.055864 47.055588 
L 56.795281 47.055477 
L 53.534698 47.055346 
L 50.274114 47.055239 
L 47.013531 47.055257 
L 43.752948 47.055298 
L 40.492365 47.055218 
L 37.231782 47.055118 
z
" clip-path="url(#p30ecf2d9a8)" style="fill: #ff0000; fill-opacity: 0.15; stroke: #ff0000; stroke-opacity: 0.15"/>
   </g>
   <g id="PolyCollection_3">
    <path d="M 37.231782 47.055118 
L 37.231782 47.055118 
L 40.492365 47.055011 
L 43.752948 47.055028 
L 47.013531 47.054957 
L 50.274114 47.054954 
L 53.534698 47.05481 
L 56.795281 47.054778 
L 60.055864 47.054619 
L 63.316447 47.054557 
L 66.57703 47.054163 
L 69.837613 47.054449 
L 73.098196 47.05356 
L 76.358779 47.053306 
L 79.619362 47.053377 
L 82.879945 47.053344 
L 86.140528 47.051151 
L 89.401111 47.048354 
L 92.661694 47.047018 
L 95.922277 47.048274 
L 99.18286 47.043939 
L 102.443443 47.034946 
L 105.704026 47.038929 
L 108.964609 47.025282 
L 112.225192 47.011551 
L 115.485775 46.996375 
L 118.746358 46.995056 
L 122.006941 46.959935 
L 125.267524 46.91558 
L 128.528107 46.865291 
L 131.78869 147.892718 
L 131.78869 237.844976 
L 131.78869 237.844976 
L 128.528107 47.241943 
L 125.267524 47.193315 
L 122.006941 47.148333 
L 118.746358 47.114438 
L 115.485775 47.113762 
L 112.225192 47.098139 
L 108.964609 47.084608 
L 105.704026 47.070958 
L 102.443443 47.075266 
L 99.18286 47.066226 
L 95.922277 47.062029 
L 92.661694 47.062634 
L 89.401111 47.061573 
L 86.140528 47.059098 
L 82.879945 47.05664 
L 79.619362 47.05658 
L 76.358779 47.056977 
L 73.098196 47.056828 
L 69.837613 47.055869 
L 66.57703 47.056072 
L 63.316447 47.055521 
L 60.055864 47.055588 
L 56.795281 47.055477 
L 53.534698 47.055346 
L 50.274114 47.055239 
L 47.013531 47.055257 
L 43.752948 47.055219 
L 40.492365 47.055218 
L 37.231782 47.055118 
z
" clip-path="url(#p30ecf2d9a8)" style="fill-opacity: 0.15; stroke: #000000; stroke-opacity: 0.15"/>
   </g>
   <g id="matplotlib.axis_1">
    <g id="xtick_1">
     <g id="line2d_1">
      <defs>
       <path id="m4af67e89c4" d="M 0 0 
L 0 3.5 
" style="stroke: #000000; stroke-width: 0.8"/>
      </defs>
      <g>
       <use xlink:href="#m4af67e89c4" x="37.231782" y="74.267717" style="stroke: #000000; stroke-width: 0.8"/>
      </g>
     </g>
     <g id="text_1">
      <!-- 0.1 -->
      <g transform="translate(33.061782 85.562404) scale(0.06 -0.06)">
       <defs>
        <path id="ArialMT-30" d="M 266 2259 
Q 266 3072 433 3567 
Q 600 4063 929 4331 
Q 1259 4600 1759 4600 
Q 2128 4600 2406 4451 
Q 2684 4303 2865 4023 
Q 3047 3744 3150 3342 
Q 3253 2941 3253 2259 
Q 3253 1453 3087 958 
Q 2922 463 2592 192 
Q 2263 -78 1759 -78 
Q 1097 -78 719 397 
Q 266 969 266 2259 
z
M 844 2259 
Q 844 1131 1108 757 
Q 1372 384 1759 384 
Q 2147 384 2411 759 
Q 2675 1134 2675 2259 
Q 2675 3391 2411 3762 
Q 2147 4134 1753 4134 
Q 1366 4134 1134 3806 
Q 844 3388 844 2259 
z
" transform="scale(0.015625)"/>
        <path id="ArialMT-2e" d="M 581 0 
L 581 641 
L 1222 641 
L 1222 0 
L 581 0 
z
" transform="scale(0.015625)"/>
        <path id="ArialMT-31" d="M 2384 0 
L 1822 0 
L 1822 3584 
Q 1619 3391 1289 3197 
Q 959 3003 697 2906 
L 697 3450 
Q 1169 3672 1522 3987 
Q 1875 4303 2022 4600 
L 2384 4600 
L 2384 0 
z
" transform="scale(0.015625)"/>
       </defs>
       <use xlink:href="#ArialMT-30"/>
       <use xlink:href="#ArialMT-2e" x="55.615234"/>
       <use xlink:href="#ArialMT-31" x="83.398438"/>
      </g>
     </g>
    </g>
    <g id="xtick_2">
     <g id="line2d_2">
      <g>
       <use xlink:href="#m4af67e89c4" x="82.879945" y="74.267717" style="stroke: #000000; stroke-width: 0.8"/>
      </g>
     </g>
     <g id="text_2">
      <!-- 0.7 -->
      <g transform="translate(78.709945 85.562404) scale(0.06 -0.06)">
       <defs>
        <path id="ArialMT-37" d="M 303 3981 
L 303 4522 
L 3269 4522 
L 3269 4084 
Q 2831 3619 2401 2847 
Q 1972 2075 1738 1259 
Q 1569 684 1522 0 
L 944 0 
Q 953 541 1156 1306 
Q 1359 2072 1739 2783 
Q 2119 3494 2547 3981 
L 303 3981 
z
" transform="scale(0.015625)"/>
       </defs>
       <use xlink:href="#ArialMT-30"/>
       <use xlink:href="#ArialMT-2e" x="55.615234"/>
       <use xlink:href="#ArialMT-37" x="83.398438"/>
      </g>
     </g>
    </g>
    <g id="xtick_3">
     <g id="line2d_3">
      <g>
       <use xlink:href="#m4af67e89c4" x="131.78869" y="74.267717" style="stroke: #000000; stroke-width: 0.8"/>
      </g>
     </g>
     <g id="text_3">
      <!-- 5.6 -->
      <g transform="translate(127.61869 85.562404) scale(0.06 -0.06)">
       <defs>
        <path id="ArialMT-35" d="M 266 1200 
L 856 1250 
Q 922 819 1161 601 
Q 1400 384 1738 384 
Q 2144 384 2425 690 
Q 2706 997 2706 1503 
Q 2706 1984 2436 2262 
Q 2166 2541 1728 2541 
Q 1456 2541 1237 2417 
Q 1019 2294 894 2097 
L 366 2166 
L 809 4519 
L 3088 4519 
L 3088 3981 
L 1259 3981 
L 1013 2750 
Q 1425 3038 1878 3038 
Q 2478 3038 2890 2622 
Q 3303 2206 3303 1553 
Q 3303 931 2941 478 
Q 2500 -78 1738 -78 
Q 1113 -78 717 272 
Q 322 622 266 1200 
z
" transform="scale(0.015625)"/>
        <path id="ArialMT-36" d="M 3184 3459 
L 2625 3416 
Q 2550 3747 2413 3897 
Q 2184 4138 1850 4138 
Q 1581 4138 1378 3988 
Q 1113 3794 959 3422 
Q 806 3050 800 2363 
Q 1003 2672 1297 2822 
Q 1591 2972 1913 2972 
Q 2475 2972 2870 2558 
Q 3266 2144 3266 1488 
Q 3266 1056 3080 686 
Q 2894 316 2569 119 
Q 2244 -78 1831 -78 
Q 1128 -78 684 439 
Q 241 956 241 2144 
Q 241 3472 731 4075 
Q 1159 4600 1884 4600 
Q 2425 4600 2770 4297 
Q 3116 3994 3184 3459 
z
M 888 1484 
Q 888 1194 1011 928 
Q 1134 663 1356 523 
Q 1578 384 1822 384 
Q 2178 384 2434 671 
Q 2691 959 2691 1453 
Q 2691 1928 2437 2201 
Q 2184 2475 1800 2475 
Q 1419 2475 1153 2201 
Q 888 1928 888 1484 
z
" transform="scale(0.015625)"/>
       </defs>
       <use xlink:href="#ArialMT-35"/>
       <use xlink:href="#ArialMT-2e" x="55.615234"/>
       <use xlink:href="#ArialMT-36" x="83.398438"/>
      </g>
     </g>
    </g>
    <g id="text_4">
     <!-- $\omega$ / $\omega_{0}$ -->
     <g transform="translate(69.560236 108.912717) scale(0.1 -0.1)">
      <defs>
       <path id="DejaVuSans-Oblique-3c9" d="M 1369 -91 
Q 72 -91 434 1766 
Q 575 2500 1256 3500 
L 1875 3500 
Q 1231 2500 1088 1750 
Q 819 397 1519 397 
Q 2166 397 2478 2078 
L 3009 2078 
Q 2669 388 3316 397 
Q 4013 403 4275 1750 
Q 4419 2500 4169 3500 
L 4788 3500 
Q 5075 2500 4934 1766 
Q 4578 -94 3278 -91 
Q 2428 -88 2503 844 
Q 2194 -91 1369 -91 
z
" transform="scale(0.015625)"/>
       <path id="ArialMT-20" transform="scale(0.015625)"/>
       <path id="ArialMT-2f" d="M 0 -78 
L 1328 4659 
L 1778 4659 
L 453 -78 
L 0 -78 
z
" transform="scale(0.015625)"/>
       <path id="DejaVuSans-30" d="M 2034 4250 
Q 1547 4250 1301 3770 
Q 1056 3291 1056 2328 
Q 1056 1369 1301 889 
Q 1547 409 2034 409 
Q 2525 409 2770 889 
Q 3016 1369 3016 2328 
Q 3016 3291 2770 3770 
Q 2525 4250 2034 4250 
z
M 2034 4750 
Q 2819 4750 3233 4129 
Q 3647 3509 3647 2328 
Q 3647 1150 3233 529 
Q 2819 -91 2034 -91 
Q 1250 -91 836 529 
Q 422 1150 422 2328 
Q 422 3509 836 4129 
Q 1250 4750 2034 4750 
z
" transform="scale(0.015625)"/>
      </defs>
      <use xlink:href="#DejaVuSans-Oblique-3c9" transform="translate(0 0.203125)"/>
      <use xlink:href="#ArialMT-20" transform="translate(83.740234 0.203125)"/>
      <use xlink:href="#ArialMT-2f" transform="translate(111.523438 0.203125)"/>
      <use xlink:href="#ArialMT-20" transform="translate(139.306641 0.203125)"/>
      <use xlink:href="#DejaVuSans-Oblique-3c9" transform="translate(167.089844 0.203125)"/>
      <use xlink:href="#DejaVuSans-30" transform="translate(250.830078 -16.203125) scale(0.7)"/>
     </g>
    </g>
   </g>
   <g id="matplotlib.axis_2">
    <g id="ytick_1">
     <g id="line2d_4">
      <defs>
       <path id="m9b0d5168c5" d="M 0 0 
L -3.5 0 
" style="stroke: #000000; stroke-width: 0.8"/>
      </defs>
      <g>
       <use xlink:href="#m9b0d5168c5" x="32.503937" y="65.19685" style="stroke: #000000; stroke-width: 0.8"/>
      </g>
     </g>
     <g id="text_5">
      <!-- −0.01 -->
      <g transform="translate(7.792843 67.702085) scale(0.07 -0.07)">
       <defs>
        <path id="ArialMT-2212" d="M 3381 1997 
L 356 1997 
L 356 2522 
L 3381 2522 
L 3381 1997 
z
" transform="scale(0.015625)"/>
       </defs>
       <use xlink:href="#ArialMT-2212"/>
       <use xlink:href="#ArialMT-30" x="58.398438"/>
       <use xlink:href="#ArialMT-2e" x="114.013672"/>
       <use xlink:href="#ArialMT-30" x="141.796875"/>
       <use xlink:href="#ArialMT-31" x="197.412109"/>
      </g>
     </g>
    </g>
    <g id="ytick_2">
     <g id="line2d_5">
      <g>
       <use xlink:href="#m9b0d5168c5" x="32.503937" y="47.055118" style="stroke: #000000; stroke-width: 0.8"/>
      </g>
     </g>
     <g id="text_6">
      <!-- 0.00 -->
      <g transform="translate(11.881281 49.560352) scale(0.07 -0.07)">
       <use xlink:href="#ArialMT-30"/>
       <use xlink:href="#ArialMT-2e" x="55.615234"/>
       <use xlink:href="#ArialMT-30" x="83.398438"/>
       <use xlink:href="#ArialMT-30" x="139.013672"/>
      </g>
     </g>
    </g>
    <g id="ytick_3">
     <g id="line2d_6">
      <g>
       <use xlink:href="#m9b0d5168c5" x="32.503937" y="28.913386" style="stroke: #000000; stroke-width: 0.8"/>
      </g>
     </g>
     <g id="text_7">
      <!-- 0.01 -->
      <g transform="translate(11.881281 31.41862) scale(0.07 -0.07)">
       <use xlink:href="#ArialMT-30"/>
       <use xlink:href="#ArialMT-2e" x="55.615234"/>
       <use xlink:href="#ArialMT-30" x="83.398438"/>
       <use xlink:href="#ArialMT-31" x="139.013672"/>
      </g>
     </g>
    </g>
    <g id="text_8">
     <!-- $\Omega - \omega$ -->
     <g transform="translate(-9.194657 61.205118) rotate(-90) scale(0.1 -0.1)">
      <defs>
       <path id="DejaVuSans-3a9" d="M 4647 556 
L 4647 0 
L 2772 0 
L 2772 556 
Q 3325 859 3634 1378 
Q 3944 1897 3944 2528 
Q 3944 3278 3531 3731 
Q 3119 4184 2444 4184 
Q 1769 4184 1355 3729 
Q 941 3275 941 2528 
Q 941 1897 1250 1378 
Q 1563 859 2119 556 
L 2119 0 
L 244 0 
L 244 556 
L 1241 556 
Q 747 991 519 1456 
Q 294 1922 294 2497 
Q 294 3491 894 4106 
Q 1491 4722 2444 4722 
Q 3391 4722 3994 4106 
Q 4594 3494 4594 2528 
Q 4594 1922 4372 1459 
Q 4150 997 3647 556 
L 4647 556 
z
" transform="scale(0.015625)"/>
       <path id="DejaVuSans-2212" d="M 678 2272 
L 4684 2272 
L 4684 1741 
L 678 1741 
L 678 2272 
z
" transform="scale(0.015625)"/>
      </defs>
      <use xlink:href="#DejaVuSans-3a9" transform="translate(0 0.21875)"/>
      <use xlink:href="#DejaVuSans-2212" transform="translate(95.898438 0.21875)"/>
      <use xlink:href="#DejaVuSans-Oblique-3c9" transform="translate(199.169922 0.21875)"/>
     </g>
    </g>
   </g>
   <g id="line2d_7">
    <path d="M 37.231782 47.05432 
L 40.492365 47.041959 
L 43.752948 47.046534 
L 47.013531 47.054558 
L 50.274114 47.054351 
L 53.534698 47.033725 
L 56.795281 47.049354 
L 60.055864 47.058422 
L 63.316447 47.050267 
L 66.57703 47.070071 
L 69.837613 47.039072 
L 73.098196 47.06585 
L 76.358779 47.065596 
L 79.619362 47.040624 
L 82.879945 47.032337 
L 86.140528 47.056652 
L 89.401111 47.051488 
L 92.661694 47.051158 
L 95.922277 47.007597 
L 99.18286 47.045039 
L 102.443443 47.023782 
L 105.704026 47.029839 
L 108.964609 46.981712 
L 112.225192 47.009658 
L 115.485775 46.931164 
L 118.746358 46.898475 
L 122.006941 46.734687 
L 125.267524 46.558822 
L 128.528107 52.32939 
L 129.973382 114.385827 
" clip-path="url(#p30ecf2d9a8)" style="fill: none; stroke: #bf00bf; stroke-width: 1.5; stroke-linecap: square"/>
   </g>
   <g id="line2d_8">
    <path d="M 37.231782 47.055118 
L 40.492365 47.055115 
L 43.752948 47.055123 
L 47.013531 47.055107 
L 50.274114 47.055097 
L 53.534698 47.055078 
L 56.795281 47.055127 
L 60.055864 47.055104 
L 63.316447 47.055039 
L 66.57703 47.055118 
L 69.837613 47.055159 
L 73.098196 47.055194 
L 76.358779 47.055141 
L 79.619362 47.054979 
L 82.879945 47.054992 
L 86.140528 47.055124 
L 89.401111 47.054963 
L 92.661694 47.054826 
L 95.922277 47.055151 
L 99.18286 47.055083 
L 102.443443 47.055106 
L 105.704026 47.054944 
L 108.964609 47.054945 
L 112.225192 47.054845 
L 115.485775 47.055069 
L 118.746358 47.054747 
L 122.006941 47.054134 
L 125.267524 47.054448 
L 128.528107 47.053617 
L 130.063198 114.385827 
" clip-path="url(#p30ecf2d9a8)" style="fill: none; stroke: #ff0000; stroke-width: 1.5; stroke-linecap: square"/>
   </g>
   <g id="line2d_9">
    <path d="M 37.231782 47.055118 
L 40.492365 47.055115 
L 43.752948 47.055123 
L 47.013531 47.055107 
L 50.274114 47.055097 
L 53.534698 47.055078 
L 56.795281 47.055127 
L 60.055864 47.055104 
L 63.316447 47.055039 
L 66.57703 47.055118 
L 69.837613 47.055159 
L 73.098196 47.055194 
L 76.358779 47.055141 
L 79.619362 47.054979 
L 82.879945 47.054992 
L 86.140528 47.055124 
L 89.401111 47.054963 
L 92.661694 47.054826 
L 95.922277 47.055151 
L 99.18286 47.055083 
L 102.443443 47.055106 
L 105.704026 47.054944 
L 108.964609 47.054945 
L 112.225192 47.054845 
L 115.485775 47.055069 
L 118.746358 47.054747 
L 122.006941 47.054134 
L 125.267524 47.054448 
L 128.528107 47.053617 
L 130.033727 114.385827 
" clip-path="url(#p30ecf2d9a8)" style="fill: none; stroke-dasharray: 5.55,2.4; stroke-dashoffset: 0; stroke: #000000; stroke-width: 1.5"/>
   </g>
   <g id="patch_3">
    <path d="M 32.503937 74.267717 
L 32.503937 19.84252 
" style="fill: none; stroke: #000000; stroke-width: 0.8; stroke-linejoin: miter; stroke-linecap: square"/>
   </g>
   <g id="patch_4">
    <path d="M 136.516535 74.267717 
L 136.516535 19.84252 
" style="fill: none; stroke: #000000; stroke-width: 0.8; stroke-linejoin: miter; stroke-linecap: square"/>
   </g>
   <g id="patch_5">
    <path d="M 32.503937 74.267717 
L 136.516535 74.267717 
" style="fill: none; stroke: #000000; stroke-width: 0.8; stroke-linejoin: miter; stroke-linecap: square"/>
   </g>
   <g id="patch_6">
    <path d="M 32.503937 19.84252 
L 136.516535 19.84252 
" style="fill: none; stroke: #000000; stroke-width: 0.8; stroke-linejoin: miter; stroke-linecap: square"/>
   </g>
  </g>
 </g>
 <defs>
  <clipPath id="p30ecf2d9a8">
   <rect x="32.503937" y="19.84252" width="104.012598" height="54.425197"/>
  </clipPath>
 </defs>
</svg>
