<?xml version="1.0" encoding="utf-8" standalone="no"?>
<!DOCTYPE svg PUBLIC "-//W3C//DTD SVG 1.1//EN"
  "http://www.w3.org/Graphics/SVG/1.1/DTD/svg11.dtd">
<svg xmlns:xlink="http://www.w3.org/1999/xlink" width="162.519685pt" height="113.385827pt" viewBox="0 0 162.519685 113.385827" xmlns="http://www.w3.org/2000/svg" version="1.1">
 <metadata>
  <rdf:RDF xmlns:dc="http://purl.org/dc/elements/1.1/" xmlns:cc="http://creativecommons.org/ns#" xmlns:rdf="http://www.w3.org/1999/02/22-rdf-syntax-ns#">
   <cc:Work>
    <dc:type rdf:resource="http://purl.org/dc/dcmitype/StillImage"/>
    <dc:date>2025-06-16T00:14:06.952572</dc:date>
    <dc:format>image/svg+xml</dc:format>
    <dc:creator>
     <cc:Agent>
      <dc:title>Matplotlib v3.9.1, https://matplotlib.org/</dc:title>
     </cc:Agent>
    </dc:creator>
   </cc:Work>
  </rdf:RDF>
 </metadata>
 <defs>
  <style type="text/css">*{stroke-linejoin: round; stroke-linecap: butt}</style>
 </defs>
 <g id="figure_1">
  <g id="patch_1">
   <path d="M 0 113.385827 
L 162.519685 113.385827 
L 162.519685 0 
L 0 0 
z
" style="fill: #ffffff"/>
  </g>
  <g id="axes_1">
   <g id="patch_2">
    <path d="M 32.503937 74.267717 
L 136.516535 74.267717 
L 136.516535 19.84252 
L 32.503937 19.84252 
z
" style="fill: #ffffff"/>
   </g>
   <g id="PolyCollection_1">
    <defs>
     <path id="m83ce0668a0" d="M 37.231782 -72.250254 
L 37.231782 -87.518592 
L 40.492365 -86.311944 
L 43.752948 -84.487109 
L 47.013531 -82.967022 
L 50.274114 -83.216888 
L 53.534698 -78.197572 
L 56.795281 -80.851699 
L 60.055864 -75.312405 
L 63.316447 -75.504768 
L 66.57703 -73.840112 
L 69.837613 -74.523224 
L 73.098196 -71.030002 
L 76.358779 -70.389222 
L 79.619362 -70.496543 
L 82.879945 -71.036364 
L 86.140528 -71.688884 
L 89.401111 -70.27369 
L 92.661694 -70.367232 
L 95.922277 -71.344987 
L 99.18286 -71.606231 
L 102.443443 -71.08182 
L 105.704026 -68.110068 
L 108.964609 -69.777031 
L 112.225192 -65.371502 
L 115.485775 -64.970394 
L 118.746358 -61.724216 
L 122.006941 -62.052638 
L 125.267524 -61.424885 
L 128.528107 -59.87524 
L 131.78869 -59.08669 
L 131.78869 -43.611158 
L 131.78869 -43.611158 
L 128.528107 -43.77276 
L 125.267524 -46.971745 
L 122.006941 -47.958633 
L 118.746358 -50.498824 
L 115.485775 -50.593558 
L 112.225192 -53.030782 
L 108.964609 -55.21843 
L 105.704026 -56.027356 
L 102.443443 -59.024212 
L 99.18286 -59.211549 
L 95.922277 -59.241968 
L 92.661694 -59.98864 
L 89.401111 -60.714183 
L 86.140528 -59.656517 
L 82.879945 -60.430102 
L 79.619362 -60.687082 
L 76.358779 -60.96843 
L 73.098196 -60.318647 
L 69.837613 -62.919607 
L 66.57703 -62.913445 
L 63.316447 -61.692707 
L 60.055864 -62.173213 
L 56.795281 -66.532746 
L 53.534698 -65.979093 
L 50.274114 -69.681483 
L 47.013531 -66.443538 
L 43.752948 -70.661954 
L 40.492365 -69.094504 
L 37.231782 -72.250254 
z
" style="stroke: #bf00bf; stroke-opacity: 0.15"/>
    </defs>
    <g clip-path="url(#pc61363ea12)">
     <use xlink:href="#m83ce0668a0" x="0" y="113.385827" style="fill: #bf00bf; fill-opacity: 0.15; stroke: #bf00bf; stroke-opacity: 0.15"/>
    </g>
   </g>
   <g id="PolyCollection_2">
    <defs>
     <path id="m6eff4863b2" d="M 37.231782 -74.051403 
L 37.231782 -85.31846 
L 40.492365 -84.54004 
L 43.752948 -82.75283 
L 47.013531 -82.035836 
L 50.274114 -79.844045 
L 53.534698 -79.173211 
L 56.795281 -76.520976 
L 60.055864 -73.073145 
L 63.316447 -72.571673 
L 66.57703 -72.159218 
L 69.837613 -66.446848 
L 73.098196 -66.724806 
L 76.358779 -66.942078 
L 79.619362 -67.133526 
L 82.879945 -67.3089 
L 86.140528 -67.464884 
L 89.401111 -67.611676 
L 92.661694 -67.744715 
L 95.922277 -67.867988 
L 99.18286 -67.975144 
L 102.443443 -68.056832 
L 105.704026 -68.055617 
L 108.964609 -66.408068 
L 112.225192 -64.371301 
L 115.485775 -63.21639 
L 118.746358 -61.454345 
L 122.006941 -60.059025 
L 125.267524 -58.650054 
L 128.528107 -57.16965 
L 131.78869 -55.860086 
L 131.78869 -46.672133 
L 131.78869 -46.672133 
L 128.528107 -47.830613 
L 125.267524 -49.3479 
L 122.006941 -50.728046 
L 118.746358 -52.136359 
L 115.485775 -54.280915 
L 112.225192 -55.140817 
L 108.964609 -57.947069 
L 105.704026 -61.750148 
L 102.443443 -62.053434 
L 99.18286 -62.314468 
L 95.922277 -62.52375 
L 92.661694 -62.769514 
L 89.401111 -63.013684 
L 86.140528 -63.233058 
L 82.879945 -63.491813 
L 79.619362 -63.738033 
L 76.358779 -64.034494 
L 73.098196 -64.363117 
L 69.837613 -64.738481 
L 66.57703 -64.791581 
L 63.316447 -64.664803 
L 60.055864 -65.015613 
L 56.795281 -66.722015 
L 53.534698 -68.643026 
L 50.274114 -69.304146 
L 47.013531 -71.048204 
L 43.752948 -71.746032 
L 40.492365 -73.232107 
L 37.231782 -74.051403 
z
" style="stroke: #ff0000; stroke-opacity: 0.15"/>
    </defs>
    <g clip-path="url(#pc61363ea12)">
     <use xlink:href="#m6eff4863b2" x="0" y="113.385827" style="fill: #ff0000; fill-opacity: 0.15; stroke: #ff0000; stroke-opacity: 0.15"/>
    </g>
   </g>
   <g id="PolyCollection_3">
    <defs>
     <path id="mbf1f71e9ba" d="M 37.231782 -74.050961 
L 37.231782 -85.318951 
L 40.492365 -84.537048 
L 43.752948 -82.752949 
L 47.013531 -82.035245 
L 50.274114 -79.841967 
L 53.534698 -79.172378 
L 56.795281 -76.520739 
L 60.055864 -73.073882 
L 63.316447 -72.571788 
L 66.57703 -72.16036 
L 69.837613 -66.446487 
L 73.098196 -66.724701 
L 76.358779 -66.942164 
L 79.619362 -67.133307 
L 82.879945 -67.308696 
L 86.140528 -67.464708 
L 89.401111 -67.612108 
L 92.661694 -67.744393 
L 95.922277 -67.86752 
L 99.18286 -67.975144 
L 102.443443 -68.056644 
L 105.704026 -68.055617 
L 108.964609 -66.40925 
L 112.225192 -64.370932 
L 115.485775 -63.215624 
L 118.746358 -61.451361 
L 122.006941 -60.060263 
L 125.267524 -58.651228 
L 128.528107 -57.169995 
L 131.78869 -55.858717 
L 131.78869 -46.671829 
L 131.78869 -46.671829 
L 128.528107 -47.830297 
L 125.267524 -49.348397 
L 122.006941 -50.726956 
L 118.746358 -52.138996 
L 115.485775 -54.278488 
L 112.225192 -55.14114 
L 108.964609 -57.947558 
L 105.704026 -61.750148 
L 102.443443 -62.053609 
L 99.18286 -62.314468 
L 95.922277 -62.524185 
L 92.661694 -62.769816 
L 89.401111 -63.013279 
L 86.140528 -63.233224 
L 82.879945 -63.492007 
L 79.619362 -63.738241 
L 76.358779 -64.032878 
L 73.098196 -64.363219 
L 69.837613 -64.738834 
L 66.57703 -64.790536 
L 63.316447 -64.666191 
L 60.055864 -65.014938 
L 56.795281 -66.722226 
L 53.534698 -68.643774 
L 50.274114 -69.304507 
L 47.013531 -71.048708 
L 43.752948 -71.745926 
L 40.492365 -73.233249 
L 37.231782 -74.050961 
z
" style="stroke: #000000; stroke-opacity: 0.15"/>
    </defs>
    <g clip-path="url(#pc61363ea12)">
     <use xlink:href="#mbf1f71e9ba" x="0" y="113.385827" style="fill-opacity: 0.15; stroke: #000000; stroke-opacity: 0.15"/>
    </g>
   </g>
   <g id="matplotlib.axis_1">
    <g id="xtick_1">
     <g id="line2d_1">
      <defs>
       <path id="m15761d72dc" d="M 0 0 
L 0 3.5 
" style="stroke: #000000; stroke-width: 0.8"/>
      </defs>
      <g>
       <use xlink:href="#m15761d72dc" x="37.231782" y="74.267717" style="stroke: #000000; stroke-width: 0.8"/>
      </g>
     </g>
     <g id="text_1">
      <!-- 0.9 -->
      <g transform="translate(33.061782 85.562404) scale(0.06 -0.06)">
       <defs>
        <path id="ArialMT-30" d="M 266 2259 
Q 266 3072 433 3567 
Q 600 4063 929 4331 
Q 1259 4600 1759 4600 
Q 2128 4600 2406 4451 
Q 2684 4303 2865 4023 
Q 3047 3744 3150 3342 
Q 3253 2941 3253 2259 
Q 3253 1453 3087 958 
Q 2922 463 2592 192 
Q 2263 -78 1759 -78 
Q 1097 -78 719 397 
Q 266 969 266 2259 
z
M 844 2259 
Q 844 1131 1108 757 
Q 1372 384 1759 384 
Q 2147 384 2411 759 
Q 2675 1134 2675 2259 
Q 2675 3391 2411 3762 
Q 2147 4134 1753 4134 
Q 1366 4134 1134 3806 
Q 844 3388 844 2259 
z
" transform="scale(0.015625)"/>
        <path id="ArialMT-2e" d="M 581 0 
L 581 641 
L 1222 641 
L 1222 0 
L 581 0 
z
" transform="scale(0.015625)"/>
        <path id="ArialMT-39" d="M 350 1059 
L 891 1109 
Q 959 728 1153 556 
Q 1347 384 1650 384 
Q 1909 384 2104 503 
Q 2300 622 2425 820 
Q 2550 1019 2634 1356 
Q 2719 1694 2719 2044 
Q 2719 2081 2716 2156 
Q 2547 1888 2255 1720 
Q 1963 1553 1622 1553 
Q 1053 1553 659 1965 
Q 266 2378 266 3053 
Q 266 3750 677 4175 
Q 1088 4600 1706 4600 
Q 2153 4600 2523 4359 
Q 2894 4119 3086 3673 
Q 3278 3228 3278 2384 
Q 3278 1506 3087 986 
Q 2897 466 2520 194 
Q 2144 -78 1638 -78 
Q 1100 -78 759 220 
Q 419 519 350 1059 
z
M 2653 3081 
Q 2653 3566 2395 3850 
Q 2138 4134 1775 4134 
Q 1400 4134 1122 3828 
Q 844 3522 844 3034 
Q 844 2597 1108 2323 
Q 1372 2050 1759 2050 
Q 2150 2050 2401 2323 
Q 2653 2597 2653 3081 
z
" transform="scale(0.015625)"/>
       </defs>
       <use xlink:href="#ArialMT-30"/>
       <use xlink:href="#ArialMT-2e" x="55.615234"/>
       <use xlink:href="#ArialMT-39" x="83.398438"/>
      </g>
     </g>
    </g>
    <g id="xtick_2">
     <g id="line2d_2">
      <g>
       <use xlink:href="#m15761d72dc" x="82.879945" y="74.267717" style="stroke: #000000; stroke-width: 0.8"/>
      </g>
     </g>
     <g id="text_2">
      <!-- 0.99 -->
      <g transform="translate(77.041663 85.562404) scale(0.06 -0.06)">
       <use xlink:href="#ArialMT-30"/>
       <use xlink:href="#ArialMT-2e" x="55.615234"/>
       <use xlink:href="#ArialMT-39" x="83.398438"/>
       <use xlink:href="#ArialMT-39" x="139.013672"/>
      </g>
     </g>
    </g>
    <g id="xtick_3">
     <g id="line2d_3">
      <g>
       <use xlink:href="#m15761d72dc" x="131.78869" y="74.267717" style="stroke: #000000; stroke-width: 0.8"/>
      </g>
     </g>
     <g id="text_3">
      <!-- 1.1 -->
      <g transform="translate(127.61869 85.562404) scale(0.06 -0.06)">
       <defs>
        <path id="ArialMT-31" d="M 2384 0 
L 1822 0 
L 1822 3584 
Q 1619 3391 1289 3197 
Q 959 3003 697 2906 
L 697 3450 
Q 1169 3672 1522 3987 
Q 1875 4303 2022 4600 
L 2384 4600 
L 2384 0 
z
" transform="scale(0.015625)"/>
       </defs>
       <use xlink:href="#ArialMT-31"/>
       <use xlink:href="#ArialMT-2e" x="55.615234"/>
       <use xlink:href="#ArialMT-31" x="83.398438"/>
      </g>
     </g>
    </g>
    <g id="text_4">
     <!-- $\omega$ / $\omega_{0}$ -->
     <g transform="translate(69.560236 108.912717) scale(0.1 -0.1)">
      <defs>
       <path id="DejaVuSans-Oblique-3c9" d="M 1369 -91 
Q 72 -91 434 1766 
Q 575 2500 1256 3500 
L 1875 3500 
Q 1231 2500 1088 1750 
Q 819 397 1519 397 
Q 2166 397 2478 2078 
L 3009 2078 
Q 2669 388 3316 397 
Q 4013 403 4275 1750 
Q 4419 2500 4169 3500 
L 4788 3500 
Q 5075 2500 4934 1766 
Q 4578 -94 3278 -91 
Q 2428 -88 2503 844 
Q 2194 -91 1369 -91 
z
" transform="scale(0.015625)"/>
       <path id="ArialMT-20" transform="scale(0.015625)"/>
       <path id="ArialMT-2f" d="M 0 -78 
L 1328 4659 
L 1778 4659 
L 453 -78 
L 0 -78 
z
" transform="scale(0.015625)"/>
       <path id="DejaVuSans-30" d="M 2034 4250 
Q 1547 4250 1301 3770 
Q 1056 3291 1056 2328 
Q 1056 1369 1301 889 
Q 1547 409 2034 409 
Q 2525 409 2770 889 
Q 3016 1369 3016 2328 
Q 3016 3291 2770 3770 
Q 2525 4250 2034 4250 
z
M 2034 4750 
Q 2819 4750 3233 4129 
Q 3647 3509 3647 2328 
Q 3647 1150 3233 529 
Q 2819 -91 2034 -91 
Q 1250 -91 836 529 
Q 422 1150 422 2328 
Q 422 3509 836 4129 
Q 1250 4750 2034 4750 
z
" transform="scale(0.015625)"/>
      </defs>
      <use xlink:href="#DejaVuSans-Oblique-3c9" transform="translate(0 0.203125)"/>
      <use xlink:href="#ArialMT-20" transform="translate(83.740234 0.203125)"/>
      <use xlink:href="#ArialMT-2f" transform="translate(111.523438 0.203125)"/>
      <use xlink:href="#ArialMT-20" transform="translate(139.306641 0.203125)"/>
      <use xlink:href="#DejaVuSans-Oblique-3c9" transform="translate(167.089844 0.203125)"/>
      <use xlink:href="#DejaVuSans-30" transform="translate(250.830078 -16.203125) scale(0.7)"/>
     </g>
    </g>
   </g>
   <g id="matplotlib.axis_2">
    <g id="ytick_1">
     <g id="line2d_4">
      <defs>
       <path id="m1e1e5e11c0" d="M 0 0 
L -3.5 0 
" style="stroke: #000000; stroke-width: 0.8"/>
      </defs>
      <g>
       <use xlink:href="#m1e1e5e11c0" x="32.503937" y="74.267717" style="stroke: #000000; stroke-width: 0.8"/>
      </g>
     </g>
     <g id="text_5">
      <!-- −0.005 -->
      <g transform="translate(3.900187 76.772951) scale(0.07 -0.07)">
       <defs>
        <path id="ArialMT-2212" d="M 3381 1997 
L 356 1997 
L 356 2522 
L 3381 2522 
L 3381 1997 
z
" transform="scale(0.015625)"/>
        <path id="ArialMT-35" d="M 266 1200 
L 856 1250 
Q 922 819 1161 601 
Q 1400 384 1738 384 
Q 2144 384 2425 690 
Q 2706 997 2706 1503 
Q 2706 1984 2436 2262 
Q 2166 2541 1728 2541 
Q 1456 2541 1237 2417 
Q 1019 2294 894 2097 
L 366 2166 
L 809 4519 
L 3088 4519 
L 3088 3981 
L 1259 3981 
L 1013 2750 
Q 1425 3038 1878 3038 
Q 2478 3038 2890 2622 
Q 3303 2206 3303 1553 
Q 3303 931 2941 478 
Q 2500 -78 1738 -78 
Q 1113 -78 717 272 
Q 322 622 266 1200 
z
" transform="scale(0.015625)"/>
       </defs>
       <use xlink:href="#ArialMT-2212"/>
       <use xlink:href="#ArialMT-30" x="58.398438"/>
       <use xlink:href="#ArialMT-2e" x="114.013672"/>
       <use xlink:href="#ArialMT-30" x="141.796875"/>
       <use xlink:href="#ArialMT-30" x="197.412109"/>
       <use xlink:href="#ArialMT-35" x="253.027344"/>
      </g>
     </g>
    </g>
    <g id="ytick_2">
     <g id="line2d_5">
      <g>
       <use xlink:href="#m1e1e5e11c0" x="32.503937" y="47.055118" style="stroke: #000000; stroke-width: 0.8"/>
      </g>
     </g>
     <g id="text_6">
      <!-- 0.000 -->
      <g transform="translate(7.988625 49.560352) scale(0.07 -0.07)">
       <use xlink:href="#ArialMT-30"/>
       <use xlink:href="#ArialMT-2e" x="55.615234"/>
       <use xlink:href="#ArialMT-30" x="83.398438"/>
       <use xlink:href="#ArialMT-30" x="139.013672"/>
       <use xlink:href="#ArialMT-30" x="194.628906"/>
      </g>
     </g>
    </g>
    <g id="ytick_3">
     <g id="line2d_6">
      <g>
       <use xlink:href="#m1e1e5e11c0" x="32.503937" y="19.84252" style="stroke: #000000; stroke-width: 0.8"/>
      </g>
     </g>
     <g id="text_7">
      <!-- 0.005 -->
      <g transform="translate(7.988625 22.347754) scale(0.07 -0.07)">
       <use xlink:href="#ArialMT-30"/>
       <use xlink:href="#ArialMT-2e" x="55.615234"/>
       <use xlink:href="#ArialMT-30" x="83.398438"/>
       <use xlink:href="#ArialMT-30" x="139.013672"/>
       <use xlink:href="#ArialMT-35" x="194.628906"/>
      </g>
     </g>
    </g>
    <g id="text_8">
     <!-- $\Omega - \omega$ -->
     <g transform="translate(-13.087313 61.205118) rotate(-90) scale(0.1 -0.1)">
      <defs>
       <path id="DejaVuSans-3a9" d="M 4647 556 
L 4647 0 
L 2772 0 
L 2772 556 
Q 3325 859 3634 1378 
Q 3944 1897 3944 2528 
Q 3944 3278 3531 3731 
Q 3119 4184 2444 4184 
Q 1769 4184 1355 3729 
Q 941 3275 941 2528 
Q 941 1897 1250 1378 
Q 1563 859 2119 556 
L 2119 0 
L 244 0 
L 244 556 
L 1241 556 
Q 747 991 519 1456 
Q 294 1922 294 2497 
Q 294 3491 894 4106 
Q 1491 4722 2444 4722 
Q 3391 4722 3994 4106 
Q 4594 3494 4594 2528 
Q 4594 1922 4372 1459 
Q 4150 997 3647 556 
L 4647 556 
z
" transform="scale(0.015625)"/>
       <path id="DejaVuSans-2212" d="M 678 2272 
L 4684 2272 
L 4684 1741 
L 678 1741 
L 678 2272 
z
" transform="scale(0.015625)"/>
      </defs>
      <use xlink:href="#DejaVuSans-3a9" transform="translate(0 0.21875)"/>
      <use xlink:href="#DejaVuSans-2212" transform="translate(95.898438 0.21875)"/>
      <use xlink:href="#DejaVuSans-Oblique-3c9" transform="translate(199.169922 0.21875)"/>
     </g>
    </g>
   </g>
   <g id="line2d_7">
    <path d="M 37.231782 33.501404 
L 40.492365 35.682603 
L 43.752948 35.811295 
L 47.013531 38.680547 
L 50.274114 36.936641 
L 53.534698 41.297494 
L 56.795281 39.693604 
L 60.055864 44.643018 
L 63.316447 44.787089 
L 66.57703 45.009048 
L 69.837613 44.664411 
L 73.098196 47.711502 
L 76.358779 47.707 
L 79.619362 47.794015 
L 82.879945 47.652594 
L 86.140528 47.713126 
L 89.401111 47.89189 
L 92.661694 48.207891 
L 95.922277 48.092349 
L 99.18286 47.976937 
L 102.443443 48.332811 
L 105.704026 51.317115 
L 108.964609 50.888096 
L 112.225192 54.184685 
L 115.485775 55.603851 
L 118.746358 57.274307 
L 122.006941 58.380191 
L 125.267524 59.187512 
L 128.528107 61.561827 
L 131.78869 62.036903 
" clip-path="url(#pc61363ea12)" style="fill: none; stroke: #bf00bf; stroke-width: 1.5; stroke-linecap: square"/>
   </g>
   <g id="line2d_8">
    <path d="M 37.231782 33.700895 
L 40.492365 34.499753 
L 43.752948 36.136396 
L 47.013531 36.843807 
L 50.274114 38.811732 
L 53.534698 39.477708 
L 56.795281 41.764331 
L 60.055864 44.341448 
L 63.316447 44.767588 
L 66.57703 44.910427 
L 69.837613 47.793162 
L 73.098196 47.841865 
L 76.358779 47.897541 
L 79.619362 47.950048 
L 82.879945 47.98547 
L 86.140528 48.036856 
L 89.401111 48.073146 
L 92.661694 48.128712 
L 95.922277 48.189958 
L 99.18286 48.241021 
L 102.443443 48.330693 
L 105.704026 48.482944 
L 108.964609 51.208258 
L 112.225192 53.629768 
L 115.485775 54.637174 
L 118.746358 56.590475 
L 122.006941 57.992292 
L 125.267524 59.38685 
L 128.528107 60.885695 
L 131.78869 62.119717 
" clip-path="url(#pc61363ea12)" style="fill: none; stroke: #ff0000; stroke-width: 1.5; stroke-linecap: square"/>
   </g>
   <g id="line2d_9">
    <path d="M 37.231782 33.700871 
L 40.492365 34.500679 
L 43.752948 36.136389 
L 47.013531 36.84385 
L 50.274114 38.81259 
L 53.534698 39.477751 
L 56.795281 41.764344 
L 60.055864 44.341417 
L 63.316447 44.766837 
L 66.57703 44.910379 
L 69.837613 47.793166 
L 73.098196 47.841867 
L 76.358779 47.898306 
L 79.619362 47.950053 
L 82.879945 47.985475 
L 86.140528 48.036861 
L 89.401111 48.073133 
L 92.661694 48.128722 
L 95.922277 48.189975 
L 99.18286 48.241021 
L 102.443443 48.3307 
L 105.704026 48.482944 
L 108.964609 51.207423 
L 112.225192 53.629791 
L 115.485775 54.638771 
L 118.746358 56.590648 
L 122.006941 57.992217 
L 125.267524 59.386015 
L 128.528107 60.885681 
L 131.78869 62.120553 
" clip-path="url(#pc61363ea12)" style="fill: none; stroke-dasharray: 5.55,2.4; stroke-dashoffset: 0; stroke: #000000; stroke-width: 1.5"/>
   </g>
   <g id="patch_3">
    <path d="M 32.503937 74.267717 
L 32.503937 19.84252 
" style="fill: none; stroke: #000000; stroke-width: 0.8; stroke-linejoin: miter; stroke-linecap: square"/>
   </g>
   <g id="patch_4">
    <path d="M 136.516535 74.267717 
L 136.516535 19.84252 
" style="fill: none; stroke: #000000; stroke-width: 0.8; stroke-linejoin: miter; stroke-linecap: square"/>
   </g>
   <g id="patch_5">
    <path d="M 32.503937 74.267717 
L 136.516535 74.267717 
" style="fill: none; stroke: #000000; stroke-width: 0.8; stroke-linejoin: miter; stroke-linecap: square"/>
   </g>
   <g id="patch_6">
    <path d="M 32.503937 19.84252 
L 136.516535 19.84252 
" style="fill: none; stroke: #000000; stroke-width: 0.8; stroke-linejoin: miter; stroke-linecap: square"/>
   </g>
  </g>
 </g>
 <defs>
  <clipPath id="pc61363ea12">
   <rect x="32.503937" y="19.84252" width="104.012598" height="54.425197"/>
  </clipPath>
 </defs>
</svg>
