<?xml version="1.0" encoding="utf-8" standalone="no"?>
<!DOCTYPE svg PUBLIC "-//W3C//DTD SVG 1.1//EN"
  "http://www.w3.org/Graphics/SVG/1.1/DTD/svg11.dtd">
<svg xmlns:xlink="http://www.w3.org/1999/xlink" width="162.519685pt" height="113.385827pt" viewBox="0 0 162.519685 113.385827" xmlns="http://www.w3.org/2000/svg" version="1.1">
 <metadata>
  <rdf:RDF xmlns:dc="http://purl.org/dc/elements/1.1/" xmlns:cc="http://creativecommons.org/ns#" xmlns:rdf="http://www.w3.org/1999/02/22-rdf-syntax-ns#">
   <cc:Work>
    <dc:type rdf:resource="http://purl.org/dc/dcmitype/StillImage"/>
    <dc:date>2025-06-16T00:14:07.019305</dc:date>
    <dc:format>image/svg+xml</dc:format>
    <dc:creator>
     <cc:Agent>
      <dc:title>Matplotlib v3.9.1, https://matplotlib.org/</dc:title>
     </cc:Agent>
    </dc:creator>
   </cc:Work>
  </rdf:RDF>
 </metadata>
 <defs>
  <style type="text/css">*{stroke-linejoin: round; stroke-linecap: butt}</style>
 </defs>
 <g id="figure_1">
  <g id="patch_1">
   <path d="M 0 113.385827 
L 162.519685 113.385827 
L 162.519685 0 
L 0 0 
z
" style="fill: #ffffff"/>
  </g>
  <g id="axes_1">
   <g id="patch_2">
    <path d="M 32.503937 74.267717 
L 136.516535 74.267717 
L 136.516535 19.84252 
L 32.503937 19.84252 
z
" style="fill: #ffffff"/>
   </g>
   <g id="PolyCollection_1">
    <defs>
     <path id="me12025956f" d="M 37.231782 -65.398209 
L 37.231782 -113.967101 
L 40.492365 -110.355703 
L 43.752948 -103.213538 
L 47.013531 -97.45117 
L 50.274114 -84.290311 
L 53.534698 -69.248913 
L 56.795281 -64.686977 
L 60.055864 -57.916084 
L 63.316447 -58.1528 
L 66.57703 -58.102758 
L 69.837613 -58.233382 
L 73.098196 -58.175266 
L 76.358779 -58.393338 
L 79.619362 -58.669347 
L 82.879945 -58.641266 
L 86.140528 -58.921922 
L 89.401111 -58.988192 
L 92.661694 -58.873399 
L 95.922277 -59.002215 
L 99.18286 -59.350641 
L 102.443443 -59.878725 
L 105.704026 -59.850014 
L 108.964609 -60.273085 
L 112.225192 -60.857359 
L 115.485775 -60.881749 
L 118.746358 -61.505919 
L 122.006941 -62.721712 
L 125.267524 -63.342199 
L 128.528107 -64.066985 
L 131.78869 -58.789563 
L 131.78869 -31.097383 
L 131.78869 -31.097383 
L 128.528107 -46.320708 
L 125.267524 -49.343825 
L 122.006941 -52.486507 
L 118.746358 -53.457185 
L 115.485775 -53.987379 
L 112.225192 -54.090452 
L 108.964609 -54.521344 
L 105.704026 -54.895506 
L 102.443443 -54.858116 
L 99.18286 -55.351885 
L 95.922277 -55.612158 
L 92.661694 -55.787586 
L 89.401111 -55.678031 
L 86.140528 -55.726805 
L 82.879945 -55.969794 
L 79.619362 -55.935063 
L 76.358779 -56.189947 
L 73.098196 -56.3927 
L 69.837613 -56.376049 
L 66.57703 -56.466093 
L 63.316447 -56.425598 
L 60.055864 -56.651738 
L 56.795281 -52.232773 
L 53.534698 -50.967211 
L 50.274114 -52.135623 
L 47.013531 -59.923134 
L 43.752948 -61.196483 
L 40.492365 -65.848421 
L 37.231782 -65.398209 
z
" style="stroke: #bf00bf; stroke-opacity: 0.15"/>
    </defs>
    <g clip-path="url(#p5372bb305e)">
     <use xlink:href="#me12025956f" x="0" y="113.385827" style="fill: #bf00bf; fill-opacity: 0.15; stroke: #bf00bf; stroke-opacity: 0.15"/>
    </g>
   </g>
   <g id="PolyCollection_2">
    <defs>
     <path id="mb327677bcc" d="M 37.231782 -65.976058 
L 37.231782 -113.979723 
L 40.492365 -108.948206 
L 43.752948 -100.963961 
L 47.013531 -57.268782 
L 50.274114 -57.259691 
L 53.534698 -57.267067 
L 56.795281 -57.270039 
L 60.055864 -57.271587 
L 63.316447 -57.266581 
L 66.57703 -57.274129 
L 69.837613 -57.273444 
L 73.098196 -57.275389 
L 76.358779 -57.27927 
L 79.619362 -57.278483 
L 82.879945 -57.281599 
L 86.140528 -57.282024 
L 89.401111 -57.287865 
L 92.661694 -57.280617 
L 95.922277 -57.290803 
L 99.18286 -57.287176 
L 102.443443 -57.294947 
L 105.704026 -57.282666 
L 108.964609 -57.306293 
L 112.225192 -57.285938 
L 115.485775 -57.313979 
L 118.746358 -57.321523 
L 122.006941 -57.321399 
L 125.267524 -57.302219 
L 128.528107 -57.315944 
L 131.78869 -56.963662 
L 131.78869 -34.494233 
L 131.78869 -34.494233 
L 128.528107 -57.203576 
L 125.267524 -57.218121 
L 122.006941 -57.199474 
L 118.746358 -57.199413 
L 115.485775 -57.206619 
L 112.225192 -57.234602 
L 108.964609 -57.214775 
L 105.704026 -57.23774 
L 102.443443 -57.225359 
L 99.18286 -57.233334 
L 95.922277 -57.229396 
L 92.661694 -57.239977 
L 89.401111 -57.232715 
L 86.140528 -57.237953 
L 82.879945 -57.237495 
L 79.619362 -57.241448 
L 76.358779 -57.240374 
L 73.098196 -57.244428 
L 69.837613 -57.246348 
L 66.57703 -57.24561 
L 63.316447 -57.252881 
L 60.055864 -57.248167 
L 56.795281 -57.249454 
L 53.534698 -57.252855 
L 50.274114 -57.259691 
L 47.013531 -57.250892 
L 43.752948 -70.885572 
L 40.492365 -67.909503 
L 37.231782 -65.976058 
z
" style="stroke: #ff0000; stroke-opacity: 0.15"/>
    </defs>
    <g clip-path="url(#p5372bb305e)">
     <use xlink:href="#mb327677bcc" x="0" y="113.385827" style="fill: #ff0000; fill-opacity: 0.15; stroke: #ff0000; stroke-opacity: 0.15"/>
    </g>
   </g>
   <g id="PolyCollection_3">
    <defs>
     <path id="m56861a2549" d="M 37.231782 -65.975351 
L 37.231782 -113.984206 
L 40.492365 -108.94628 
L 43.752948 -100.963961 
L 47.013531 -57.268782 
L 50.274114 -57.259691 
L 53.534698 -57.267067 
L 56.795281 -57.270039 
L 60.055864 -57.271587 
L 63.316447 -57.266581 
L 66.57703 -57.274129 
L 69.837613 -57.273444 
L 73.098196 -57.275389 
L 76.358779 -57.27927 
L 79.619362 -57.278483 
L 82.879945 -57.281599 
L 86.140528 -57.282024 
L 89.401111 -57.287865 
L 92.661694 -57.280617 
L 95.922277 -57.290803 
L 99.18286 -57.287176 
L 102.443443 -57.294947 
L 105.704026 -57.282666 
L 108.964609 -57.306293 
L 112.225192 -57.285938 
L 115.485775 -57.313979 
L 118.746358 -57.321523 
L 122.006941 -57.321399 
L 125.267524 -57.302219 
L 128.528107 -57.315944 
L 131.78869 -56.956602 
L 131.78869 -34.495359 
L 131.78869 -34.495359 
L 128.528107 -57.203576 
L 125.267524 -57.218121 
L 122.006941 -57.199474 
L 118.746358 -57.199413 
L 115.485775 -57.206619 
L 112.225192 -57.234602 
L 108.964609 -57.214775 
L 105.704026 -57.23774 
L 102.443443 -57.225359 
L 99.18286 -57.233334 
L 95.922277 -57.229396 
L 92.661694 -57.239977 
L 89.401111 -57.232715 
L 86.140528 -57.237953 
L 82.879945 -57.237495 
L 79.619362 -57.241448 
L 76.358779 -57.240374 
L 73.098196 -57.244428 
L 69.837613 -57.246348 
L 66.57703 -57.24561 
L 63.316447 -57.252881 
L 60.055864 -57.248167 
L 56.795281 -57.249454 
L 53.534698 -57.252855 
L 50.274114 -57.259691 
L 47.013531 -57.250892 
L 43.752948 -70.885572 
L 40.492365 -67.909901 
L 37.231782 -65.975351 
z
" style="stroke: #000000; stroke-opacity: 0.15"/>
    </defs>
    <g clip-path="url(#p5372bb305e)">
     <use xlink:href="#m56861a2549" x="0" y="113.385827" style="fill-opacity: 0.15; stroke: #000000; stroke-opacity: 0.15"/>
    </g>
   </g>
   <g id="matplotlib.axis_1">
    <g id="xtick_1">
     <g id="line2d_1">
      <defs>
       <path id="me5992bbd40" d="M 0 0 
L 0 3.5 
" style="stroke: #000000; stroke-width: 0.8"/>
      </defs>
      <g>
       <use xlink:href="#me5992bbd40" x="37.231782" y="74.267717" style="stroke: #000000; stroke-width: 0.8"/>
      </g>
     </g>
     <g id="text_1">
      <!-- 1.5 -->
      <g transform="translate(33.061782 85.562404) scale(0.06 -0.06)">
       <defs>
        <path id="ArialMT-31" d="M 2384 0 
L 1822 0 
L 1822 3584 
Q 1619 3391 1289 3197 
Q 959 3003 697 2906 
L 697 3450 
Q 1169 3672 1522 3987 
Q 1875 4303 2022 4600 
L 2384 4600 
L 2384 0 
z
" transform="scale(0.015625)"/>
        <path id="ArialMT-2e" d="M 581 0 
L 581 641 
L 1222 641 
L 1222 0 
L 581 0 
z
" transform="scale(0.015625)"/>
        <path id="ArialMT-35" d="M 266 1200 
L 856 1250 
Q 922 819 1161 601 
Q 1400 384 1738 384 
Q 2144 384 2425 690 
Q 2706 997 2706 1503 
Q 2706 1984 2436 2262 
Q 2166 2541 1728 2541 
Q 1456 2541 1237 2417 
Q 1019 2294 894 2097 
L 366 2166 
L 809 4519 
L 3088 4519 
L 3088 3981 
L 1259 3981 
L 1013 2750 
Q 1425 3038 1878 3038 
Q 2478 3038 2890 2622 
Q 3303 2206 3303 1553 
Q 3303 931 2941 478 
Q 2500 -78 1738 -78 
Q 1113 -78 717 272 
Q 322 622 266 1200 
z
" transform="scale(0.015625)"/>
       </defs>
       <use xlink:href="#ArialMT-31"/>
       <use xlink:href="#ArialMT-2e" x="55.615234"/>
       <use xlink:href="#ArialMT-35" x="83.398438"/>
      </g>
     </g>
    </g>
    <g id="xtick_2">
     <g id="line2d_2">
      <g>
       <use xlink:href="#me5992bbd40" x="82.879945" y="74.267717" style="stroke: #000000; stroke-width: 0.8"/>
      </g>
     </g>
     <g id="text_2">
      <!-- 2.6 -->
      <g transform="translate(78.709945 85.562404) scale(0.06 -0.06)">
       <defs>
        <path id="ArialMT-32" d="M 3222 541 
L 3222 0 
L 194 0 
Q 188 203 259 391 
Q 375 700 629 1000 
Q 884 1300 1366 1694 
Q 2113 2306 2375 2664 
Q 2638 3022 2638 3341 
Q 2638 3675 2398 3904 
Q 2159 4134 1775 4134 
Q 1369 4134 1125 3890 
Q 881 3647 878 3216 
L 300 3275 
Q 359 3922 746 4261 
Q 1134 4600 1788 4600 
Q 2447 4600 2831 4234 
Q 3216 3869 3216 3328 
Q 3216 3053 3103 2787 
Q 2991 2522 2730 2228 
Q 2469 1934 1863 1422 
Q 1356 997 1212 845 
Q 1069 694 975 541 
L 3222 541 
z
" transform="scale(0.015625)"/>
        <path id="ArialMT-36" d="M 3184 3459 
L 2625 3416 
Q 2550 3747 2413 3897 
Q 2184 4138 1850 4138 
Q 1581 4138 1378 3988 
Q 1113 3794 959 3422 
Q 806 3050 800 2363 
Q 1003 2672 1297 2822 
Q 1591 2972 1913 2972 
Q 2475 2972 2870 2558 
Q 3266 2144 3266 1488 
Q 3266 1056 3080 686 
Q 2894 316 2569 119 
Q 2244 -78 1831 -78 
Q 1128 -78 684 439 
Q 241 956 241 2144 
Q 241 3472 731 4075 
Q 1159 4600 1884 4600 
Q 2425 4600 2770 4297 
Q 3116 3994 3184 3459 
z
M 888 1484 
Q 888 1194 1011 928 
Q 1134 663 1356 523 
Q 1578 384 1822 384 
Q 2178 384 2434 671 
Q 2691 959 2691 1453 
Q 2691 1928 2437 2201 
Q 2184 2475 1800 2475 
Q 1419 2475 1153 2201 
Q 888 1928 888 1484 
z
" transform="scale(0.015625)"/>
       </defs>
       <use xlink:href="#ArialMT-32"/>
       <use xlink:href="#ArialMT-2e" x="55.615234"/>
       <use xlink:href="#ArialMT-36" x="83.398438"/>
      </g>
     </g>
    </g>
    <g id="xtick_3">
     <g id="line2d_3">
      <g>
       <use xlink:href="#me5992bbd40" x="131.78869" y="74.267717" style="stroke: #000000; stroke-width: 0.8"/>
      </g>
     </g>
     <g id="text_3">
      <!-- 4.6 -->
      <g transform="translate(127.61869 85.562404) scale(0.06 -0.06)">
       <defs>
        <path id="ArialMT-34" d="M 2069 0 
L 2069 1097 
L 81 1097 
L 81 1613 
L 2172 4581 
L 2631 4581 
L 2631 1613 
L 3250 1613 
L 3250 1097 
L 2631 1097 
L 2631 0 
L 2069 0 
z
M 2069 1613 
L 2069 3678 
L 634 1613 
L 2069 1613 
z
" transform="scale(0.015625)"/>
       </defs>
       <use xlink:href="#ArialMT-34"/>
       <use xlink:href="#ArialMT-2e" x="55.615234"/>
       <use xlink:href="#ArialMT-36" x="83.398438"/>
      </g>
     </g>
    </g>
    <g id="text_4">
     <!-- $\omega$ / $\omega_{0}$ -->
     <g transform="translate(69.560236 108.912717) scale(0.1 -0.1)">
      <defs>
       <path id="DejaVuSans-Oblique-3c9" d="M 1369 -91 
Q 72 -91 434 1766 
Q 575 2500 1256 3500 
L 1875 3500 
Q 1231 2500 1088 1750 
Q 819 397 1519 397 
Q 2166 397 2478 2078 
L 3009 2078 
Q 2669 388 3316 397 
Q 4013 403 4275 1750 
Q 4419 2500 4169 3500 
L 4788 3500 
Q 5075 2500 4934 1766 
Q 4578 -94 3278 -91 
Q 2428 -88 2503 844 
Q 2194 -91 1369 -91 
z
" transform="scale(0.015625)"/>
       <path id="ArialMT-20" transform="scale(0.015625)"/>
       <path id="ArialMT-2f" d="M 0 -78 
L 1328 4659 
L 1778 4659 
L 453 -78 
L 0 -78 
z
" transform="scale(0.015625)"/>
       <path id="DejaVuSans-30" d="M 2034 4250 
Q 1547 4250 1301 3770 
Q 1056 3291 1056 2328 
Q 1056 1369 1301 889 
Q 1547 409 2034 409 
Q 2525 409 2770 889 
Q 3016 1369 3016 2328 
Q 3016 3291 2770 3770 
Q 2525 4250 2034 4250 
z
M 2034 4750 
Q 2819 4750 3233 4129 
Q 3647 3509 3647 2328 
Q 3647 1150 3233 529 
Q 2819 -91 2034 -91 
Q 1250 -91 836 529 
Q 422 1150 422 2328 
Q 422 3509 836 4129 
Q 1250 4750 2034 4750 
z
" transform="scale(0.015625)"/>
      </defs>
      <use xlink:href="#DejaVuSans-Oblique-3c9" transform="translate(0 0.203125)"/>
      <use xlink:href="#ArialMT-20" transform="translate(83.740234 0.203125)"/>
      <use xlink:href="#ArialMT-2f" transform="translate(111.523438 0.203125)"/>
      <use xlink:href="#ArialMT-20" transform="translate(139.306641 0.203125)"/>
      <use xlink:href="#DejaVuSans-Oblique-3c9" transform="translate(167.089844 0.203125)"/>
      <use xlink:href="#DejaVuSans-30" transform="translate(250.830078 -16.203125) scale(0.7)"/>
     </g>
    </g>
   </g>
   <g id="matplotlib.axis_2">
    <g id="ytick_1">
     <g id="line2d_4">
      <defs>
       <path id="m50a8444784" d="M 0 0 
L -3.5 0 
" style="stroke: #000000; stroke-width: 0.8"/>
      </defs>
      <g>
       <use xlink:href="#m50a8444784" x="32.503937" y="56.125984" style="stroke: #000000; stroke-width: 0.8"/>
      </g>
     </g>
     <g id="text_5">
      <!-- 0.0 -->
      <g transform="translate(15.773937 58.631219) scale(0.07 -0.07)">
       <defs>
        <path id="ArialMT-30" d="M 266 2259 
Q 266 3072 433 3567 
Q 600 4063 929 4331 
Q 1259 4600 1759 4600 
Q 2128 4600 2406 4451 
Q 2684 4303 2865 4023 
Q 3047 3744 3150 3342 
Q 3253 2941 3253 2259 
Q 3253 1453 3087 958 
Q 2922 463 2592 192 
Q 2263 -78 1759 -78 
Q 1097 -78 719 397 
Q 266 969 266 2259 
z
M 844 2259 
Q 844 1131 1108 757 
Q 1372 384 1759 384 
Q 2147 384 2411 759 
Q 2675 1134 2675 2259 
Q 2675 3391 2411 3762 
Q 2147 4134 1753 4134 
Q 1366 4134 1134 3806 
Q 844 3388 844 2259 
z
" transform="scale(0.015625)"/>
       </defs>
       <use xlink:href="#ArialMT-30"/>
       <use xlink:href="#ArialMT-2e" x="55.615234"/>
       <use xlink:href="#ArialMT-30" x="83.398438"/>
      </g>
     </g>
    </g>
    <g id="ytick_2">
     <g id="line2d_5">
      <g>
       <use xlink:href="#m50a8444784" x="32.503937" y="19.84252" style="stroke: #000000; stroke-width: 0.8"/>
      </g>
     </g>
     <g id="text_6">
      <!-- 0.1 -->
      <g transform="translate(15.773937 22.347754) scale(0.07 -0.07)">
       <use xlink:href="#ArialMT-30"/>
       <use xlink:href="#ArialMT-2e" x="55.615234"/>
       <use xlink:href="#ArialMT-31" x="83.398438"/>
      </g>
     </g>
    </g>
    <g id="text_7">
     <!-- $\Omega - \omega$ -->
     <g transform="translate(-1.213563 61.205118) rotate(-90) scale(0.1 -0.1)">
      <defs>
       <path id="DejaVuSans-3a9" d="M 4647 556 
L 4647 0 
L 2772 0 
L 2772 556 
Q 3325 859 3634 1378 
Q 3944 1897 3944 2528 
Q 3944 3278 3531 3731 
Q 3119 4184 2444 4184 
Q 1769 4184 1355 3729 
Q 941 3275 941 2528 
Q 941 1897 1250 1378 
Q 1563 859 2119 556 
L 2119 0 
L 244 0 
L 244 556 
L 1241 556 
Q 747 991 519 1456 
Q 294 1922 294 2497 
Q 294 3491 894 4106 
Q 1491 4722 2444 4722 
Q 3391 4722 3994 4106 
Q 4594 3494 4594 2528 
Q 4594 1922 4372 1459 
Q 4150 997 3647 556 
L 4647 556 
z
" transform="scale(0.015625)"/>
       <path id="DejaVuSans-2212" d="M 678 2272 
L 4684 2272 
L 4684 1741 
L 678 1741 
L 678 2272 
z
" transform="scale(0.015625)"/>
      </defs>
      <use xlink:href="#DejaVuSans-3a9" transform="translate(0 0.21875)"/>
      <use xlink:href="#DejaVuSans-2212" transform="translate(95.898438 0.21875)"/>
      <use xlink:href="#DejaVuSans-Oblique-3c9" transform="translate(199.169922 0.21875)"/>
     </g>
    </g>
   </g>
   <g id="line2d_6">
    <path d="M 37.231782 23.703172 
L 40.492365 25.283765 
L 43.752948 31.180816 
L 47.013531 34.698675 
L 50.274114 45.17286 
L 53.534698 53.277765 
L 56.795281 54.925952 
L 60.055864 56.101916 
L 63.316447 56.096628 
L 66.57703 56.101401 
L 69.837613 56.081111 
L 73.098196 56.101844 
L 76.358779 56.094184 
L 79.619362 56.083622 
L 82.879945 56.080297 
L 86.140528 56.061463 
L 89.401111 56.052715 
L 92.661694 56.055334 
L 95.922277 56.07864 
L 99.18286 56.034564 
L 102.443443 56.017406 
L 105.704026 56.013067 
L 108.964609 55.988612 
L 112.225192 55.911921 
L 115.485775 55.951263 
L 118.746358 55.904275 
L 122.006941 55.781717 
L 125.267524 57.042815 
L 128.528107 58.19198 
L 131.78869 68.442354 
" clip-path="url(#p5372bb305e)" style="fill: none; stroke: #bf00bf; stroke-width: 1.5; stroke-linecap: square"/>
   </g>
   <g id="line2d_7">
    <path d="M 37.231782 23.407936 
L 40.492365 24.956972 
L 43.752948 27.461061 
L 47.013531 56.12599 
L 50.274114 56.126135 
L 53.534698 56.125866 
L 56.795281 56.12608 
L 60.055864 56.12595 
L 63.316447 56.126096 
L 66.57703 56.125957 
L 69.837613 56.125931 
L 73.098196 56.125918 
L 76.358779 56.126005 
L 79.619362 56.125861 
L 82.879945 56.12628 
L 86.140528 56.125838 
L 89.401111 56.125537 
L 92.661694 56.12553 
L 95.922277 56.125727 
L 99.18286 56.125572 
L 102.443443 56.125674 
L 105.704026 56.125624 
L 108.964609 56.125293 
L 112.225192 56.125556 
L 115.485775 56.125528 
L 118.746358 56.125359 
L 122.006941 56.12539 
L 125.267524 56.125657 
L 128.528107 56.126067 
L 131.78869 67.656879 
" clip-path="url(#p5372bb305e)" style="fill: none; stroke: #ff0000; stroke-width: 1.5; stroke-linecap: square"/>
   </g>
   <g id="line2d_8">
    <path d="M 37.231782 23.406048 
L 40.492365 24.957736 
L 43.752948 27.461061 
L 47.013531 56.12599 
L 50.274114 56.126135 
L 53.534698 56.125866 
L 56.795281 56.12608 
L 60.055864 56.12595 
L 63.316447 56.126096 
L 66.57703 56.125957 
L 69.837613 56.125931 
L 73.098196 56.125918 
L 76.358779 56.126005 
L 79.619362 56.125861 
L 82.879945 56.12628 
L 86.140528 56.125838 
L 89.401111 56.125537 
L 92.661694 56.12553 
L 95.922277 56.125727 
L 99.18286 56.125572 
L 102.443443 56.125674 
L 105.704026 56.125624 
L 108.964609 56.125293 
L 112.225192 56.125556 
L 115.485775 56.125528 
L 118.746358 56.125359 
L 122.006941 56.12539 
L 125.267524 56.125657 
L 128.528107 56.126067 
L 131.78869 67.659846 
" clip-path="url(#p5372bb305e)" style="fill: none; stroke-dasharray: 5.55,2.4; stroke-dashoffset: 0; stroke: #000000; stroke-width: 1.5"/>
   </g>
   <g id="patch_3">
    <path d="M 32.503937 74.267717 
L 32.503937 19.84252 
" style="fill: none; stroke: #000000; stroke-width: 0.8; stroke-linejoin: miter; stroke-linecap: square"/>
   </g>
   <g id="patch_4">
    <path d="M 136.516535 74.267717 
L 136.516535 19.84252 
" style="fill: none; stroke: #000000; stroke-width: 0.8; stroke-linejoin: miter; stroke-linecap: square"/>
   </g>
   <g id="patch_5">
    <path d="M 32.503937 74.267717 
L 136.516535 74.267717 
" style="fill: none; stroke: #000000; stroke-width: 0.8; stroke-linejoin: miter; stroke-linecap: square"/>
   </g>
   <g id="patch_6">
    <path d="M 32.503937 19.84252 
L 136.516535 19.84252 
" style="fill: none; stroke: #000000; stroke-width: 0.8; stroke-linejoin: miter; stroke-linecap: square"/>
   </g>
  </g>
 </g>
 <defs>
  <clipPath id="p5372bb305e">
   <rect x="32.503937" y="19.84252" width="104.012598" height="54.425197"/>
  </clipPath>
 </defs>
</svg>
